<svg xmlns="http://www.w3.org/2000/svg" xmlns:svg="http://www.w3.org/2000/svg" id="svg2" width="537.66" height="576.45" version="1.1" viewBox="0 0 504.056 540.421"><metadata id="metadata7"/><g id="layer1" transform="translate(-66.17007,-263.94324)"><rect id="rect3475" width="503.045" height="539.41" x="66.676" y="264.449" style="fill:#e9c6af;fill-rule:evenodd;stroke:#000;stroke-width:1.01140678px;stroke-linecap:butt;stroke-linejoin:miter;stroke-opacity:1"/><rect id="rect3479" width="112.127" height="69.701" x="104.232" y="406.379" style="fill:#e5ff80;stroke:#000;stroke-opacity:1"/><g id="g4800"><g style="fill:none;fill-rule:evenodd;stroke:none;stroke-width:1px;stroke-linecap:butt;stroke-linejoin:round;stroke-opacity:1" id="g3552"><path style="fill:#afafde;fill-rule:evenodd;stroke:none;stroke-width:1px;stroke-linecap:butt;stroke-linejoin:round;stroke-opacity:1" id="path3562" d="m 379.07617,302.4123 15.43565,22.41059 19.35997,-19.7517 -16.4563,-15.92831 z" points="394.512 324.823 413.872 305.071 397.415 289.143 379.076 302.412"/><path style="fill:#353564;fill-rule:evenodd;stroke:none;stroke-width:1px;stroke-linecap:butt;stroke-linejoin:round;stroke-opacity:1" id="path3554" d="m 379.07617,283.0632 0,19.3491 18.33932,-13.26942 0,-16.59014 z" points="379.076 302.412 397.415 289.143 397.415 272.553 379.076 283.063"/><path style="fill:#e9e9ff;fill-rule:evenodd;stroke:none;stroke-width:1px;stroke-linecap:butt;stroke-linejoin:round;stroke-opacity:1" id="path3564" d="m 397.41549,272.55274 16.4563,12.61652 0,19.90193 -16.4563,-15.92831 z" points="413.872 285.169 413.872 305.071 397.415 289.143 397.415 272.553"/><path style="fill:#4d8c9f;fill-opacity:1;fill-rule:evenodd;stroke:none;stroke-width:1px;stroke-linecap:butt;stroke-linejoin:round;stroke-opacity:1" id="path3556" d="m 379.07617,283.0632 15.43565,17.75102 19.35997,-15.64496 -16.4563,-12.61652 z" points="394.512 300.814 413.872 285.169 397.415 272.553 379.076 283.063"/><path style="fill:#d7f6ff;fill-opacity:1;fill-rule:evenodd;stroke:none;stroke-width:1px;stroke-linecap:butt;stroke-linejoin:round;stroke-opacity:1" id="path3560" d="m 394.51182,300.81422 0,24.00867 19.35997,-19.7517 0,-19.90193 z" points="394.512 324.823 413.872 305.071 413.872 285.169 394.512 300.814"/><path style="fill:#6fadbf;fill-opacity:1;fill-rule:evenodd;stroke:none;stroke-width:1px;stroke-linecap:butt;stroke-linejoin:round;stroke-opacity:1" id="path3558" d="m 379.07617,283.0632 15.43565,17.75102 0,24.00867 -15.43565,-22.41059 z" points="394.512 300.814 394.512 324.823 379.076 302.412 379.076 283.063"/></g><g id="text3574" transform="matrix(0.20094782,0,0,0.20094782,346.74993,142.83313)" style="font-style:normal;font-weight:400;font-size:40px;line-height:125%;font-family:sans-serif;letter-spacing:0;word-spacing:0;fill:#73c2c6;fill-opacity:1;stroke:none;stroke-width:1px;stroke-linecap:butt;stroke-linejoin:miter;stroke-opacity:1"><path id="path3579" d="m 307.08638,707.39511 c 0,0 -66.67007,55.55839 -66.67007,55.55839 0,0 -8.16931,-9.30394 -8.16931,-9.30394 0,0 11.47893,-77.7946 11.47893,-77.7946 0,0 -50.32953,29.67193 -50.32953,29.67193 0,0 -5.30931,-5.9558 -5.30931,-5.9558 0,0 60.90107,-34.52658 60.90107,-34.52658 0,0 5.82389,4.40872 5.82389,4.40872 0,0 -7.5004,72.95898 -7.5004,72.95898 0,0 51.85675,-40.97311 51.85675,-40.97311 0,0 7.91798,5.95601 7.91798,5.95601 0,0 0,0 0,0" style="fill:#73c2c6;fill-opacity:1"/></g><g style="font-style:normal;font-weight:400;font-size:40px;line-height:125%;font-family:sans-serif;letter-spacing:0;word-spacing:0;fill:#000;fill-opacity:1;stroke:none;stroke-width:1px;stroke-linecap:butt;stroke-linejoin:miter;stroke-opacity:1" id="text3661" transform="matrix(0.21124921,0,0,0.21124921,340.00858,125.75526)"><path id="path3666" d="m 209.15469,820.22268 c -0.047,3.30097 -0.32618,6.01318 -0.83617,8.13007 -0.50782,2.08517 -1.19914,3.49484 -2.07085,4.23084 -0.80555,0.71547 -1.74071,0.84011 -2.80234,0.38029 -1.04065,-0.4637 -2.1282,-1.48119 -3.26106,-3.04409 -0.97678,-1.34758 -1.85346,-2.78249 -2.63214,-4.30533 -0.76246,-1.4975 -1.53256,-3.24911 -2.31003,-5.2518 0,0 -0.24146,16.11216 -0.24146,16.11216 0,0 -3.00564,-4.32587 -3.00564,-4.32587 0,0 0.78544,-51.83948 0.78544,-51.83948 0,0 3.00754,3.62854 3.00754,3.62854 0,0 -0.0601,4.00967 -0.0601,4.00967 0.83485,-0.44913 1.77056,-0.54012 2.80955,-0.26887 1.05959,0.26382 2.18884,1.11279 3.3898,2.5561 2.32287,2.79161 4.13366,6.826 5.40883,12.10673 1.30222,5.3322 1.91223,11.30688 1.81862,17.88104 0,0 0,0 0,0 m -3.47982,-4.30311 c 0.0697,-4.82983 -0.28395,-8.94743 -1.05682,-12.33685 -0.7675,-3.36584 -1.97185,-6.05089 -3.60014,-8.05187 -0.91244,-1.12129 -1.82943,-1.83469 -2.75091,-2.14488 -0.91441,-0.30781 -1.78754,-0.31362 -2.6203,-0.0207 0,0 -0.32575,21.73611 -0.32575,21.73611 0.85506,1.99442 1.59458,3.56825 2.21618,4.71473 0.63606,1.16769 1.36145,2.30367 2.17777,3.40881 1.77511,2.40317 3.19722,3.04793 4.25263,1.89977 1.0642,-1.15773 1.63555,-4.22918 1.70734,-9.20509 0,0 0,0 0,0" style="fill:#000;fill-opacity:1"/><path id="path3668" d="m 217.96783,853.60503 c 0,0 -3.62571,-4.98985 -3.62571,-4.98985 0,0 0.80683,-57.88822 0.80683,-57.88822 0,0 3.62598,4.13428 3.62598,4.13428 0,0 -0.8071,58.74379 -0.8071,58.74379 0,0 0,0 0,0" style="fill:#000;fill-opacity:1"/><path id="path3670" d="m 246.25038,892.52874 c 0,0 -4.47535,-6.15917 -4.47535,-6.15917 0,0 0.064,-5.14617 0.064,-5.14617 -1.50149,0.0605 -2.92018,-0.27481 -4.25814,-1.0002 -1.32523,-0.7185 -2.76465,-2.15446 -4.31422,-4.29438 -2.55781,-3.53227 -4.49675,-7.64523 -5.8423,-12.35078 -1.33075,-4.68108 -1.95476,-9.70422 -1.88274,-15.10466 0,0 0.37588,-28.18457 0.37588,-28.18457 0,0 3.95481,4.77141 3.95481,4.77141 0,0 -0.32935,25.10202 -0.32935,25.10202 -0.0294,2.23983 0.002,4.23903 0.0952,5.99854 0.0934,1.73493 0.31834,3.41902 0.67567,5.05451 0.37242,1.68613 0.86554,3.21444 1.48069,4.58592 0.61807,1.37796 1.52826,2.88167 2.73649,4.5172 1.08481,1.46848 2.28277,2.56553 3.59655,3.28735 1.34163,0.74933 2.6069,1.0923 3.79344,1.02308 0,0 0.42932,-34.51404 0.42932,-34.51404 0,0 4.47336,5.39704 4.47336,5.39704 0,0 -0.57337,47.0169 -0.57337,47.0169 0,0 0,0 0,0" style="fill:#000;fill-opacity:1"/></g><g id="text3760" transform="matrix(0.22241591,0,0,0.22241591,297.26904,116.72078)" style="font-style:normal;font-weight:400;font-size:40px;line-height:125%;font-family:sans-serif;letter-spacing:0;word-spacing:0;fill:#000;fill-opacity:1;stroke:none;stroke-width:1px;stroke-linecap:butt;stroke-linejoin:miter;stroke-opacity:1"><path id="path3765" d="m 473.34182,861.0411 c -0.0214,7.67785 -1.09576,14.35657 -3.23951,20.08959 -2.16591,5.79232 -5.5358,11.02404 -10.17343,15.73194 -1.5644,1.5881 -3.1054,2.97044 -4.6224,4.14433 -1.51061,1.19285 -3.01444,2.22051 -4.5113,3.08101 0,0 0.003,-8.19904 0.003,-8.19904 0,0 0.27496,-0.27221 0.27496,-0.27221 0.8406,-0.3209 2.16742,-1.01333 3.97078,-2.07106 1.78703,-1.02008 3.55843,-2.40833 5.31463,-4.16003 1.67148,-1.66719 3.04561,-3.35503 4.12856,-5.06711 1.07717,-1.70295 1.9118,-3.40846 2.50693,-5.11976 0.59337,-1.65178 1.01734,-3.35249 1.27299,-5.1043 0.25541,-1.75012 0.38514,-3.55412 0.38939,-5.41383 0,0 0.01,-4.18712 0.01,-4.18712 -1.43666,3.23587 -2.82281,5.96852 -4.15752,8.19198 -1.32623,2.19375 -3.03438,4.30548 -5.1345,6.34044 -3.55009,3.43995 -6.41668,4.17332 -8.57059,2.13646 -2.16033,-2.1068 -3.24986,-6.96377 -3.24986,-14.562 0,-4.16555 0.374,-8.08912 1.12032,-11.75964 0.76266,-3.7047 1.79084,-7.21323 3.08063,-10.51951 1.19091,-3.06511 2.629,-5.87341 4.30886,-8.42179 1.66638,-2.55626 3.30984,-4.5192 4.93047,-5.89576 1.69448,-1.43929 3.09792,-2.35238 4.21625,-2.74674 1.12898,-0.43441 2.31012,-0.62621 3.5423,-0.57755 0,0 0.30782,-2.24649 0.30782,-2.24649 0,0 4.39432,-3.74701 4.39432,-3.74701 0,0 -0.11254,40.3552 -0.11254,40.3552 0,0 0,0 0,0 m -4.66141,-2.91763 c 0,0 0.0573,-25.11334 0.0573,-25.11334 -1.26565,0.16769 -2.45505,0.53979 -3.56661,1.11793 -1.10068,0.5386 -2.20799,1.2901 -3.32193,2.25627 -2.72405,2.3627 -4.89614,5.72118 -6.49681,10.07479 -1.61245,4.38565 -2.42478,9.42157 -2.42807,15.07832 -0.003,5.36468 0.59414,8.86704 1.78591,10.50372 1.18406,1.62608 3.13522,1.14038 5.83165,-1.42302 1.43024,-1.35967 2.85096,-3.13965 4.26245,-5.33575 1.41877,-2.22451 2.70996,-4.61053 3.87606,-7.15892 0,0 0,0 0,0" style="fill:#000;fill-opacity:1"/><path id="path3767" d="m 487.1056,801.67265 c 0,0 -4.93739,4.11188 -4.93739,4.11188 0,0 0.0291,-7.82842 0.0291,-7.82842 0,0 4.9411,-4.01232 4.9411,-4.01232 0,0 -0.0328,7.72886 -0.0328,7.72886 0,0 0,0 0,0 m -0.49289,51.62315 c 0,0 -4.35649,4.22911 -4.35649,4.22911 0,0 0.16688,-44.48659 0.16688,-44.48659 0,0 4.37524,-3.73074 4.37524,-3.73074 0,0 -0.18563,43.98822 -0.18563,43.98822 0,0 0,0 0,0" style="fill:#000;fill-opacity:1"/><path id="path3769" d="m 514.33397,826.38508 c 0,0 -3.72687,3.61789 -3.72687,3.61789 0,0 0.15925,-23.43413 0.15925,-23.43413 0.0129,-1.8966 -0.0353,-3.61691 -0.14473,-5.16156 -0.10936,-1.57097 -0.32209,-2.68444 -0.63857,-3.3402 -0.32997,-0.74435 -0.81122,-1.08789 -1.44499,-1.02925 -0.636,0.0339 -1.46771,0.49629 -2.49784,1.39087 -1.06391,0.92391 -2.18598,2.37406 -3.36705,4.35579 -1.18868,1.9945 -2.3368,4.22487 -3.44341,6.69216 0,0 -0.17639,31.74224 -0.17639,31.74224 0,0 -4.06779,3.94885 -4.06779,3.94885 0,0 0.22032,-43.02923 0.22032,-43.02923 0,0 4.08399,-3.48239 4.08399,-3.48239 0,0 -0.0264,4.74426 -0.0264,4.74426 1.26568,-2.94188 2.56302,-5.49521 3.89106,-7.66278 1.3185,-2.15201 2.65888,-3.80379 4.02027,-4.96015 2.46197,-2.0912 4.30672,-2.32081 5.55269,-0.72029 1.2362,1.58798 1.83266,4.88033 1.79667,9.88235 0,0 -0.19025,26.44557 -0.19025,26.44557 0,0 0,0 0,0" style="fill:#000;fill-opacity:1"/></g></g><text id="text3481" x="220.355" y="307.941" xml:space="preserve" style="font-style:normal;font-weight:400;font-size:40px;line-height:125%;font-family:sans-serif;letter-spacing:0;word-spacing:0;fill:#000;fill-opacity:1;stroke:none;stroke-width:1px;stroke-linecap:butt;stroke-linejoin:miter;stroke-opacity:1"><tspan id="tspan3483" x="220.355" y="307.941">Zplugin</tspan></text><text id="text3485" x="87.883" y="369.499" xml:space="preserve" style="font-style:normal;font-weight:400;font-size:40px;line-height:125%;font-family:sans-serif;letter-spacing:0;word-spacing:0;fill:#000;fill-opacity:1;stroke:none;stroke-width:1px;stroke-linecap:butt;stroke-linejoin:miter;stroke-opacity:1"><tspan id="tspan3487" x="87.883" y="369.499">Plugins</tspan></text><rect id="rect3479-3" width="112.127" height="69.701" x="104.232" y="504.697" style="fill:#e5ff80;stroke:#000;stroke-opacity:1"/><rect id="rect3479-0" width="112.127" height="69.701" x="104.232" y="603.016" style="fill:#e5ff80;stroke:#000;stroke-opacity:1"/><rect id="rect3479-9" width="112.127" height="69.701" x="104.232" y="701.334" style="fill:#e5ff80;stroke:#000;stroke-opacity:1"/><text id="text3520" x="355.91" y="359.398" xml:space="preserve" style="font-style:normal;font-variant:normal;font-weight:400;font-stretch:normal;font-size:27.5px;line-height:125%;font-family:sans-serif;-inkscape-font-specification:'sans-serif, Normal';text-align:start;letter-spacing:0;word-spacing:0;writing-mode:lr-tb;text-anchor:start;fill:#000;fill-opacity:1;stroke:none;stroke-width:1px;stroke-linecap:butt;stroke-linejoin:miter;stroke-opacity:1"><tspan id="tspan3522" x="355.91" y="359.398">report</tspan></text><path id="path3524" d="M 313.60508,461.42297 217.18279,435.58669" style="fill:none;fill-rule:evenodd;stroke:#000;stroke-width:1px;stroke-linecap:butt;stroke-linejoin:miter;stroke-opacity:1"/><text id="text3526" x="316.178" y="474.555" xml:space="preserve" style="font-style:normal;font-variant:normal;font-weight:400;font-stretch:normal;font-size:27.5px;line-height:125%;font-family:sans-serif;-inkscape-font-specification:'sans-serif, Normal';text-align:start;letter-spacing:0;word-spacing:0;writing-mode:lr-tb;text-anchor:start;fill:#000;fill-opacity:1;stroke:none;stroke-width:1px;stroke-linecap:butt;stroke-linejoin:miter;stroke-opacity:1"><tspan id="tspan3528" x="316.178" y="474.555">completions</tspan></text><rect id="rect3479-94" width="87.752" height="54.548" x="355.285" y="377.096" style="fill:#c4b7c8;stroke:#000;stroke-opacity:1"/><g id="g4416" transform="translate(-1.0101547,0)"><text style="font-style:normal;font-variant:normal;font-weight:400;font-stretch:normal;font-size:20px;line-height:125%;font-family:sans-serif;-inkscape-font-specification:'sans-serif, Normal';text-align:start;letter-spacing:0;word-spacing:0;writing-mode:lr-tb;text-anchor:start;fill:#000;fill-opacity:1;stroke:none;stroke-width:1px;stroke-linecap:butt;stroke-linejoin:miter;stroke-opacity:1" id="text3547" x="369.097" y="397.783" xml:space="preserve"><tspan id="tspan3549" x="369.097" y="397.783">txt</tspan><tspan id="tspan3555" x="369.097" y="422.783">txt</tspan></text><text style="font-style:normal;font-variant:normal;font-weight:400;font-stretch:normal;font-size:20px;line-height:125%;font-family:sans-serif;-inkscape-font-specification:'sans-serif, Normal';text-align:start;letter-spacing:0;word-spacing:0;writing-mode:lr-tb;text-anchor:start;fill:#000;fill-opacity:1;stroke:none;stroke-width:1px;stroke-linecap:butt;stroke-linejoin:miter;stroke-opacity:1" id="text3547-6" x="403.442" y="397.783" xml:space="preserve"><tspan id="tspan3549-1" x="403.442" y="397.783">txt</tspan><tspan id="tspan3555-6" x="403.442" y="422.783">txt</tspan></text></g><rect id="rect3479-7" width="66.67" height="41.444" x="365.826" y="491.186" style="fill:#afe9af;stroke:#000;stroke-opacity:1"/><rect id="rect3479-3-8" width="66.67" height="41.444" x="365.826" y="549.646" style="fill:#afe9af;stroke:#000;stroke-opacity:1"/><rect id="rect3479-0-1" width="66.67" height="41.444" x="365.826" y="608.106" style="fill:#afe9af;stroke:#000;stroke-opacity:1"/><rect id="rect3479-9-1" width="66.67" height="41.444" x="365.826" y="666.565" style="fill:#afe9af;stroke:#000;stroke-opacity:1"/><path id="path4424" d="M 216.17264,423.03717 350.52293,355.35695" style="fill:none;fill-rule:evenodd;stroke:#000;stroke-width:1px;stroke-linecap:butt;stroke-linejoin:miter;stroke-opacity:1"/><text id="text4426" x="128.752" y="455.057" xml:space="preserve" style="font-style:normal;font-weight:400;font-size:40px;line-height:125%;font-family:sans-serif;letter-spacing:0;word-spacing:0;fill:#000;fill-opacity:1;stroke:none;stroke-width:1px;stroke-linecap:butt;stroke-linejoin:miter;stroke-opacity:1"><tspan id="tspan4428" x="128.752" y="455.057">znt</tspan></text><text id="text4430" x="128.166" y="550.417" xml:space="preserve" style="font-style:normal;font-weight:400;font-size:40px;line-height:125%;font-family:sans-serif;letter-spacing:0;word-spacing:0;fill:#000;fill-opacity:1;stroke:none;stroke-width:1px;stroke-linecap:butt;stroke-linejoin:miter;stroke-opacity:1"><tspan id="tspan4432" x="128.166" y="550.417">zca</tspan></text><text id="text4434" x="121.438" y="648.823" xml:space="preserve" style="font-style:normal;font-weight:400;font-size:40px;line-height:125%;font-family:sans-serif;letter-spacing:0;word-spacing:0;fill:#000;fill-opacity:1;stroke:none;stroke-width:1px;stroke-linecap:butt;stroke-linejoin:miter;stroke-opacity:1"><tspan id="tspan4436" x="121.438" y="648.823">zew</tspan></text><text id="text4438" x="121.467" y="751.077" xml:space="preserve" style="font-style:normal;font-weight:400;font-size:40px;line-height:125%;font-family:sans-serif;letter-spacing:0;word-spacing:0;fill:#000;fill-opacity:1;stroke:none;stroke-width:1px;stroke-linecap:butt;stroke-linejoin:miter;stroke-opacity:1"><tspan id="tspan4440" x="121.467" y="751.077">calc</tspan></text><text id="text4442" x="387.73" y="515.502" xml:space="preserve" style="font-style:normal;font-variant:normal;font-weight:400;font-stretch:normal;font-size:20px;line-height:125%;font-family:sans-serif;-inkscape-font-specification:'sans-serif, Normal';text-align:start;letter-spacing:0;word-spacing:0;writing-mode:lr-tb;text-anchor:start;fill:#000;fill-opacity:1;stroke:none;stroke-width:1px;stroke-linecap:butt;stroke-linejoin:miter;stroke-opacity:1"><tspan id="tspan4444" x="387.73" y="515.502">cp</tspan></text><text id="text4446" x="371.217" y="577.814" xml:space="preserve" style="font-style:normal;font-variant:normal;font-weight:400;font-stretch:normal;font-size:20px;line-height:125%;font-family:sans-serif;-inkscape-font-specification:'sans-serif, Normal';text-align:start;letter-spacing:0;word-spacing:0;writing-mode:lr-tb;text-anchor:start;fill:#000;fill-opacity:1;stroke:none;stroke-width:1px;stroke-linecap:butt;stroke-linejoin:miter;stroke-opacity:1"><tspan id="tspan4448" x="371.217" y="577.814">xauth</tspan></text><text id="text4450" x="390.694" y="636.293" xml:space="preserve" style="font-style:normal;font-variant:normal;font-weight:400;font-stretch:normal;font-size:20px;line-height:125%;font-family:sans-serif;-inkscape-font-specification:'sans-serif, Normal';text-align:start;letter-spacing:0;word-spacing:0;writing-mode:lr-tb;text-anchor:start;fill:#000;fill-opacity:1;stroke:none;stroke-width:1px;stroke-linecap:butt;stroke-linejoin:miter;stroke-opacity:1"><tspan id="tspan4452" x="390.694" y="636.293">ls</tspan></text><text id="text4454" x="390.03" y="694.885" xml:space="preserve" style="font-style:normal;font-variant:normal;font-weight:400;font-stretch:normal;font-size:20px;line-height:125%;font-family:sans-serif;-inkscape-font-specification:'sans-serif, Normal';text-align:start;letter-spacing:0;word-spacing:0;writing-mode:lr-tb;text-anchor:start;fill:#000;fill-opacity:1;stroke:none;stroke-width:1px;stroke-linecap:butt;stroke-linejoin:miter;stroke-opacity:1"><tspan id="tspan4456" x="390.03" y="694.885">ln</tspan></text><text id="text4474" x="498.046" y="538.276" xml:space="preserve" style="font-style:normal;font-variant:normal;font-weight:400;font-stretch:normal;font-size:25px;line-height:125%;font-family:sans-serif;-inkscape-font-specification:'sans-serif, Normal';text-align:center;letter-spacing:0;word-spacing:0;writing-mode:lr-tb;text-anchor:middle;fill:#000;fill-opacity:1;stroke:none;stroke-width:1px;stroke-linecap:butt;stroke-linejoin:miter;stroke-opacity:1"><tspan id="tspan4476" x="498.046" y="538.276">install</tspan><tspan id="tspan4482" x="498.046" y="569.526">uninstall</tspan><tspan id="tspan4484" x="498.046" y="600.776">enable</tspan><tspan id="tspan4486" x="498.046" y="632.026">disable</tspan><tspan id="tspan4488" x="498.046" y="663.276">search</tspan></text><text id="text4490" x="269.69" y="533.144" xml:space="preserve" style="font-style:normal;font-variant:normal;font-weight:400;font-stretch:normal;font-size:25px;line-height:125%;font-family:sans-serif;-inkscape-font-specification:'sans-serif, Normal';text-align:center;letter-spacing:0;word-spacing:0;writing-mode:lr-tb;text-anchor:middle;fill:#000;fill-opacity:1;stroke:none;stroke-width:1px;stroke-linecap:butt;stroke-linejoin:miter;stroke-opacity:1"><tspan id="tspan4492" x="269.69" y="533.144">list</tspan><tspan id="tspan4498" x="269.69" y="564.394">load</tspan><tspan id="tspan4494" x="269.69" y="595.644">unload</tspan><tspan id="tspan4500" x="269.69" y="626.894">status</tspan><tspan id="tspan4502" x="269.69" y="658.144">update</tspan></text></g></svg>